<?xml version="1.0" standalone="no"?>
<?xml-stylesheet type="text/css" href="../css/index.css" ?>    
<!-- Generator: Gravit.io --><svg xmlns="http://www.w3.org/2000/svg" xmlns:xlink="http://www.w3.org/1999/xlink" style="isolation:isolate" viewBox="586.308 333.687 275.515 59.29" width="275.515" height="59.29">
<path class="BenHsieh-Path" d=" M 755.746 391.738 L 752.641 364.258 L 752.641 364.258 Q 752.641 364.199 752.26 364.199 L 752.26 364.199 L 752.26 364.199 Q 751.879 364.199 751.645 364.258 L 751.645 364.258 L 751.645 364.258 Q 749.594 365.02 748.334 365.576 L 748.334 365.576 L 748.334 365.576 Q 747.074 366.133 746.195 366.543 L 746.195 366.543 L 746.195 366.543 Q 745.316 366.953 744.613 367.275 L 744.613 367.275 L 744.613 367.275 Q 743.91 367.598 743.031 367.92 L 743.031 367.92 L 743.031 367.92 Q 742.152 368.242 740.834 368.564 L 740.834 368.564 L 740.834 368.564 Q 739.516 368.887 737.406 369.355 L 737.406 369.355 L 737.406 389.688 L 737.406 389.688 Q 737.406 390.742 736.938 390.801 L 736.938 390.801 L 736.938 390.801 Q 736.469 390.859 735.912 390.361 L 735.912 390.361 L 735.912 390.361 Q 735.355 389.863 734.857 389.072 L 734.857 389.072 L 734.857 389.072 Q 734.359 388.281 734.359 387.637 L 734.359 387.637 L 734.359 387.637 Q 734.301 386.289 734.184 384.385 L 734.184 384.385 L 734.184 384.385 Q 734.066 382.48 733.979 380.459 L 733.979 380.459 L 733.979 380.459 Q 733.891 378.438 733.773 376.445 L 733.773 376.445 L 733.773 376.445 Q 733.656 374.453 733.568 372.871 L 733.568 372.871 L 733.568 372.871 Q 733.48 371.289 733.422 370.352 L 733.422 370.352 L 733.363 369.355 L 728.266 367.305 L 728.266 367.305 Q 728.148 367.246 728.148 366.895 L 728.148 366.895 L 728.148 366.895 Q 728.148 366.543 728.266 366.25 L 728.266 366.25 L 728.266 366.25 Q 728.559 365.664 729.232 365.283 L 729.232 365.283 L 729.232 365.283 Q 729.906 364.902 730.668 364.697 L 730.668 364.697 L 730.668 364.697 Q 731.43 364.492 732.162 364.404 L 732.162 364.404 L 732.162 364.404 Q 732.895 364.316 733.363 364.258 L 733.363 364.258 L 733.363 364.258 Q 733.363 363.379 733.48 361.211 L 733.48 361.211 L 733.48 361.211 Q 733.598 359.043 733.773 356.611 L 733.773 356.611 L 733.773 356.611 Q 733.949 354.18 734.096 352.012 L 734.096 352.012 L 734.096 352.012 Q 734.242 349.844 734.359 349.023 L 734.359 349.023 L 734.359 349.023 Q 734.359 348.848 734.682 348.115 L 734.682 348.115 L 734.682 348.115 Q 735.004 347.383 735.443 346.504 L 735.443 346.504 L 735.443 346.504 Q 735.883 345.625 736.41 344.863 L 736.41 344.863 L 736.41 344.863 Q 736.938 344.102 737.377 343.809 L 737.377 343.809 L 737.377 343.809 Q 737.816 343.516 738.109 343.955 L 738.109 343.955 L 738.109 343.955 Q 738.402 344.395 738.402 345.918 L 738.402 345.918 L 738.402 345.918 Q 738.402 346.27 738.256 347.471 L 738.256 347.471 L 738.256 347.471 Q 738.109 348.672 737.904 350.02 L 737.904 350.02 L 737.904 350.02 Q 737.699 351.367 737.553 352.568 L 737.553 352.568 L 737.553 352.568 Q 737.406 353.77 737.406 354.121 L 737.406 354.121 L 737.406 354.121 Q 737.348 354.766 737.318 356.318 L 737.318 356.318 L 737.318 356.318 Q 737.289 357.871 737.289 359.658 L 737.289 359.658 L 737.289 359.658 Q 737.289 361.445 737.318 363.027 L 737.318 363.027 L 737.318 363.027 Q 737.348 364.609 737.406 365.254 L 737.406 365.254 L 737.406 365.254 Q 738.871 365.605 741.273 365.371 L 741.273 365.371 L 741.273 365.371 Q 743.676 365.137 746.107 364.404 L 746.107 364.404 L 746.107 364.404 Q 748.539 363.672 750.648 362.588 L 750.648 362.588 L 750.648 362.588 Q 752.758 361.504 753.695 360.215 L 753.695 360.215 L 753.695 360.215 Q 754.809 358.574 755.395 356.465 L 755.395 356.465 L 755.395 356.465 Q 755.98 354.355 756.449 352.158 L 756.449 352.158 L 756.449 352.158 Q 756.918 349.961 757.621 347.793 L 757.621 347.793 L 757.621 347.793 Q 758.324 345.625 759.73 343.867 L 759.73 343.867 L 759.73 343.867 Q 761.43 341.816 763.1 341.055 L 763.1 341.055 L 763.1 341.055 Q 764.77 340.293 766.176 340.498 L 766.176 340.498 L 766.176 340.498 Q 767.582 340.703 768.607 341.729 L 768.607 341.729 L 768.607 341.729 Q 769.633 342.754 769.955 344.219 L 769.955 344.219 L 769.955 344.219 Q 770.277 345.684 769.838 347.471 L 769.838 347.471 L 769.838 347.471 Q 769.398 349.258 767.875 351.016 L 767.875 351.016 L 767.875 351.016 Q 767.465 351.484 766.615 352.363 L 766.615 352.363 L 766.615 352.363 Q 765.766 353.242 764.682 354.355 L 764.682 354.355 L 764.682 354.355 Q 763.598 355.469 762.396 356.699 L 762.396 356.699 L 762.396 356.699 Q 761.195 357.93 760.082 359.014 L 760.082 359.014 L 760.082 359.014 Q 758.969 360.098 758.061 360.977 L 758.061 360.977 L 758.061 360.977 Q 757.152 361.855 756.742 362.266 L 756.742 362.266 L 756.742 362.266 Q 756.391 365.781 756.508 369.59 L 756.508 369.59 L 756.508 369.59 Q 756.625 373.398 757.094 377.207 L 757.094 377.207 L 757.094 377.207 Q 757.563 381.016 758.266 384.707 L 758.266 384.707 L 758.266 384.707 Q 758.969 388.398 759.73 391.738 L 759.73 391.738 L 755.746 391.738 Z  M 759.73 350.02 L 759.73 350.02 L 759.73 350.02 Q 759.613 350.43 759.32 351.426 L 759.32 351.426 L 759.32 351.426 Q 759.027 352.422 758.705 353.564 L 758.705 353.564 L 758.705 353.564 Q 758.383 354.707 758.119 355.732 L 758.119 355.732 L 758.119 355.732 Q 757.855 356.758 757.738 357.168 L 757.738 357.168 L 757.738 357.168 Q 759.496 356.289 760.99 354.707 L 760.99 354.707 L 760.99 354.707 Q 762.484 353.125 763.598 351.367 L 763.598 351.367 L 763.598 351.367 Q 764.711 349.609 765.443 347.91 L 765.443 347.91 L 765.443 347.91 Q 766.176 346.211 766.381 345.039 L 766.381 345.039 L 766.381 345.039 Q 766.586 343.867 766.234 343.457 L 766.234 343.457 L 766.234 343.457 Q 765.883 343.047 764.828 343.867 L 764.828 343.867 L 764.828 343.867 Q 763.305 345.156 761.869 346.621 L 761.869 346.621 L 761.869 346.621 Q 760.434 348.086 759.73 350.02 Z  M 776.547 391.738 L 776.547 391.738 L 776.547 391.738 Q 775.141 390.684 774.467 388.779 L 774.467 388.779 L 774.467 388.779 Q 773.793 386.875 773.764 385.205 L 773.764 385.205 L 773.764 385.205 Q 773.734 383.535 774.203 382.627 L 774.203 382.627 L 774.203 382.627 Q 774.672 381.719 775.492 382.598 L 775.492 382.598 L 775.492 382.598 Q 775.375 385.762 776.664 387.402 L 776.664 387.402 L 776.664 387.402 Q 777.953 389.043 779.799 389.453 L 779.799 389.453 L 779.799 389.453 Q 781.645 389.863 783.725 389.219 L 783.725 389.219 L 783.725 389.219 Q 785.805 388.574 787.299 387.197 L 787.299 387.197 L 787.299 387.197 Q 788.793 385.82 789.35 383.828 L 789.35 383.828 L 789.35 383.828 Q 789.906 381.836 788.734 379.551 L 788.734 379.551 L 788.734 379.551 Q 787.211 377.852 785.307 376.24 L 785.307 376.24 L 785.307 376.24 Q 783.402 374.629 781.469 373.047 L 781.469 373.047 L 781.469 373.047 Q 779.535 371.465 777.719 369.795 L 777.719 369.795 L 777.719 369.795 Q 775.902 368.125 774.496 366.25 L 774.496 366.25 L 774.496 366.25 Q 774.379 366.133 774.379 365.752 L 774.379 365.752 L 774.379 365.752 Q 774.379 365.371 774.496 365.254 L 774.496 365.254 L 774.496 365.254 Q 774.906 364.727 775.668 363.613 L 775.668 363.613 L 775.668 363.613 Q 776.43 362.5 777.426 361.094 L 777.426 361.094 L 777.426 361.094 Q 778.422 359.688 779.535 358.135 L 779.535 358.135 L 779.535 358.135 Q 780.648 356.582 781.645 355.176 L 781.645 355.176 L 781.645 355.176 Q 782.641 353.77 783.432 352.656 L 783.432 352.656 L 783.432 352.656 Q 784.223 351.543 784.633 351.016 L 784.633 351.016 L 784.633 351.016 Q 785.453 349.961 786.303 349.785 L 786.303 349.785 L 786.303 349.785 Q 787.152 349.609 788.734 350.02 L 788.734 350.02 L 788.734 350.02 Q 788.676 350.254 788.266 351.045 L 788.266 351.045 L 788.266 351.045 Q 787.855 351.836 787.68 352.07 L 787.68 352.07 L 787.68 352.07 Q 787.211 352.773 785.922 354.502 L 785.922 354.502 L 785.922 354.502 Q 784.633 356.23 783.168 358.193 L 783.168 358.193 L 783.168 358.193 Q 781.703 360.156 780.414 361.885 L 780.414 361.885 L 780.414 361.885 Q 779.125 363.613 778.598 364.258 L 778.598 364.258 L 778.598 364.258 Q 778.129 364.961 778.949 365.898 L 778.949 365.898 L 778.949 365.898 Q 779.77 366.836 781.293 368.008 L 781.293 368.008 L 781.293 368.008 Q 782.816 369.18 784.75 370.615 L 784.75 370.615 L 784.75 370.615 Q 786.684 372.051 788.412 373.691 L 788.412 373.691 L 788.412 373.691 Q 790.141 375.332 791.342 377.207 L 791.342 377.207 L 791.342 377.207 Q 792.543 379.082 792.631 381.221 L 792.631 381.221 L 792.631 381.221 Q 792.719 383.359 791.4 385.703 L 791.4 385.703 L 791.4 385.703 Q 790.082 388.047 786.684 390.684 L 786.684 390.684 L 786.684 390.684 Q 785.629 391.504 784.369 392.09 L 784.369 392.09 L 784.369 392.09 Q 783.109 392.676 781.762 392.881 L 781.762 392.881 L 781.762 392.881 Q 780.414 393.086 779.066 392.852 L 779.066 392.852 L 779.066 392.852 Q 777.719 392.617 776.547 391.738 Z  M 795.883 389.688 L 795.883 389.688 L 795.883 389.688 Q 795.766 389.453 795.59 388.779 L 795.59 388.779 L 795.59 388.779 Q 795.414 388.105 795.238 387.285 L 795.238 387.285 L 795.238 387.285 Q 795.063 386.465 794.945 385.703 L 794.945 385.703 L 794.945 385.703 Q 794.828 384.941 794.828 384.59 L 794.828 384.59 L 794.828 356.113 L 794.828 356.113 Q 794.828 355.527 795.355 355.293 L 795.355 355.293 L 795.355 355.293 Q 795.883 355.059 796.557 355.029 L 796.557 355.029 L 796.557 355.029 Q 797.23 355 797.787 355.059 L 797.787 355.059 L 797.787 355.059 Q 798.344 355.117 798.402 355.117 L 798.402 355.117 L 798.402 386.641 L 798.402 386.641 Q 798.402 387.637 799.047 388.281 L 799.047 388.281 L 799.047 388.281 Q 799.691 388.926 800.57 389.307 L 800.57 389.307 L 800.57 389.307 Q 801.449 389.688 802.387 389.775 L 802.387 389.775 L 802.387 389.775 Q 803.324 389.863 803.969 389.688 L 803.969 389.688 L 803.969 389.688 Q 804.789 390.918 803.939 391.65 L 803.939 391.65 L 803.939 391.65 Q 803.09 392.383 801.537 392.471 L 801.537 392.471 L 801.537 392.471 Q 799.984 392.559 798.314 391.885 L 798.314 391.885 L 798.314 391.885 Q 796.645 391.211 795.883 389.688 Z  M 793.832 345.918 L 793.832 345.918 L 793.832 345.918 Q 793.832 344.219 795.18 343.721 L 795.18 343.721 L 795.18 343.721 Q 796.527 343.223 797.934 343.867 L 797.934 343.867 L 797.934 346.973 L 797.934 346.973 Q 797.758 347.031 797.318 347.061 L 797.318 347.061 L 797.318 347.061 Q 796.879 347.09 796.381 347.09 L 796.381 347.09 L 796.381 347.09 Q 795.883 347.09 795.443 347.061 L 795.443 347.061 L 795.443 347.061 Q 795.004 347.031 794.828 346.973 L 794.828 346.973 L 794.828 346.973 Q 794.594 346.914 794.213 346.504 L 794.213 346.504 L 794.213 346.504 Q 793.832 346.094 793.832 345.918 Z  M 817.738 391.738 L 817.738 391.738 L 817.738 391.738 Q 815.277 389.805 813.842 387.197 L 813.842 387.197 L 813.842 387.197 Q 812.406 384.59 811.645 381.602 L 811.645 381.602 L 811.645 381.602 Q 811.293 381.895 810.59 382.246 L 810.59 382.246 L 810.59 382.246 Q 809.887 382.598 809.154 382.832 L 809.154 382.832 L 809.154 382.832 Q 808.422 383.066 807.719 383.154 L 807.719 383.154 L 807.719 383.154 Q 807.016 383.242 806.693 383.008 L 806.693 383.008 L 806.693 383.008 Q 806.371 382.773 806.518 382.217 L 806.518 382.217 L 806.518 382.217 Q 806.664 381.66 807.602 380.547 L 807.602 380.547 L 807.602 380.547 Q 807.719 380.371 808.334 379.785 L 808.334 379.785 L 808.334 379.785 Q 808.949 379.199 809.652 378.525 L 809.652 378.525 L 809.652 378.525 Q 810.355 377.852 810.941 377.236 L 810.941 377.236 L 810.941 377.236 Q 811.527 376.621 811.645 376.445 L 811.645 376.445 L 811.645 376.445 Q 812.289 374.98 812.436 373.223 L 812.436 373.223 L 812.436 373.223 Q 812.582 371.465 812.611 369.561 L 812.611 369.561 L 812.611 369.561 Q 812.641 367.656 812.816 365.781 L 812.816 365.781 L 812.816 365.781 Q 812.992 363.906 813.695 362.266 L 813.695 362.266 L 813.695 362.266 Q 814.105 361.328 815.248 359.951 L 815.248 359.951 L 815.248 359.951 Q 816.391 358.574 817.826 357.285 L 817.826 357.285 L 817.826 357.285 Q 819.262 355.996 820.756 354.971 L 820.756 354.971 L 820.756 354.971 Q 822.25 353.945 823.334 353.711 L 823.334 353.711 L 823.334 353.711 Q 824.418 353.477 824.916 354.238 L 824.916 354.238 L 824.916 354.238 Q 825.414 355 824.887 357.168 L 824.887 357.168 L 824.887 357.168 Q 824.242 359.746 822.924 362.178 L 822.924 362.178 L 822.924 362.178 Q 821.605 364.609 820.199 366.982 L 820.199 366.982 L 820.199 366.982 Q 818.793 369.355 817.533 371.699 L 817.533 371.699 L 817.533 371.699 Q 816.273 374.043 815.746 376.445 L 815.746 376.445 L 815.746 376.445 Q 815.453 377.734 815.453 379.58 L 815.453 379.58 L 815.453 379.58 Q 815.453 381.426 815.863 383.242 L 815.863 383.242 L 815.863 383.242 Q 816.273 385.059 817.211 386.553 L 817.211 386.553 L 817.211 386.553 Q 818.148 388.047 819.789 388.633 L 819.789 388.633 L 819.789 388.633 Q 821.664 389.336 823.539 388.984 L 823.539 388.984 L 823.539 388.984 Q 825.414 388.633 827.201 387.637 L 827.201 387.637 L 827.201 387.637 Q 828.988 386.641 830.629 385.146 L 830.629 385.146 L 830.629 385.146 Q 832.27 383.652 833.676 382.07 L 833.676 382.07 L 833.676 382.07 Q 835.082 380.488 836.195 378.994 L 836.195 378.994 L 836.195 378.994 Q 837.309 377.5 838.07 376.445 L 838.07 376.445 L 839.066 377.5 L 839.066 377.5 Q 839.477 377.852 838.568 379.492 L 838.568 379.492 L 838.568 379.492 Q 837.66 381.133 835.932 383.213 L 835.932 383.213 L 835.932 383.213 Q 834.203 385.293 831.859 387.461 L 831.859 387.461 L 831.859 387.461 Q 829.516 389.629 827.025 391.094 L 827.025 391.094 L 827.025 391.094 Q 824.535 392.559 822.104 392.91 L 822.104 392.91 L 822.104 392.91 Q 819.672 393.262 817.738 391.738 Z  M 815.746 366.25 L 815.746 366.25 L 815.746 366.25 Q 815.688 366.543 815.658 367.275 L 815.658 367.275 L 815.658 367.275 Q 815.629 368.008 815.629 368.828 L 815.629 368.828 L 815.629 368.828 Q 815.629 369.648 815.658 370.352 L 815.658 370.352 L 815.658 370.352 Q 815.688 371.055 815.746 371.348 L 815.746 371.348 L 815.746 371.348 Q 817.621 368.125 819.262 364.492 L 819.262 364.492 L 819.262 364.492 Q 820.902 360.859 821.84 357.168 L 821.84 357.168 L 821.84 357.168 Q 820.492 357.637 819.408 358.604 L 819.408 358.604 L 819.408 358.604 Q 818.324 359.57 817.563 360.83 L 817.563 360.83 L 817.563 360.83 Q 816.801 362.09 816.361 363.496 L 816.361 363.496 L 816.361 363.496 Q 815.922 364.902 815.746 366.25 Z  M 844.398 392.734 L 842.348 390.684 L 842.348 390.684 Q 842.875 384.473 842.611 378.789 L 842.611 378.789 L 842.611 378.789 Q 842.348 373.105 841.645 367.48 L 841.645 367.48 L 841.645 367.48 Q 840.941 361.855 840.004 356.055 L 840.004 356.055 L 840.004 356.055 Q 839.066 350.254 838.305 343.867 L 838.305 343.867 L 838.305 343.867 Q 838.305 343.691 838.275 343.281 L 838.275 343.281 L 838.275 343.281 Q 838.246 342.871 838.246 342.373 L 838.246 342.373 L 838.246 342.373 Q 838.246 341.875 838.275 341.465 L 838.275 341.465 L 838.275 341.465 Q 838.305 341.055 838.305 340.879 L 838.305 340.879 L 840.355 340.879 L 840.355 340.879 Q 840.531 341.934 840.912 344.16 L 840.912 344.16 L 840.912 344.16 Q 841.293 346.387 841.791 349.199 L 841.791 349.199 L 841.791 349.199 Q 842.289 352.012 842.846 355.117 L 842.846 355.117 L 842.846 355.117 Q 843.402 358.223 843.9 361.035 L 843.9 361.035 L 843.9 361.035 Q 844.398 363.848 844.809 366.074 L 844.809 366.074 L 844.809 366.074 Q 845.219 368.301 845.453 369.355 L 845.453 369.355 L 845.453 369.355 Q 845.453 369.531 845.6 369.971 L 845.6 369.971 L 845.6 369.971 Q 845.746 370.41 845.893 370.879 L 845.893 370.879 L 845.893 370.879 Q 846.039 371.348 846.186 371.787 L 846.186 371.787 L 846.186 371.787 Q 846.332 372.227 846.449 372.402 L 846.449 372.402 L 846.449 372.402 Q 846.625 371.934 847.182 370.791 L 847.182 370.791 L 847.182 370.791 Q 847.738 369.648 848.383 368.33 L 848.383 368.33 L 848.383 368.33 Q 849.027 367.012 849.613 365.869 L 849.613 365.869 L 849.613 365.869 Q 850.199 364.727 850.492 364.258 L 850.492 364.258 L 850.492 364.258 Q 851.43 362.559 852.895 361.152 L 852.895 361.152 L 852.895 361.152 Q 854.359 359.746 855.766 359.395 L 855.766 359.395 L 855.766 359.395 Q 857.172 359.043 858.256 360.068 L 858.256 360.068 L 858.256 360.068 Q 859.34 361.094 859.633 364.258 L 859.633 364.258 L 859.633 364.258 Q 859.691 365.02 859.779 366.602 L 859.779 366.602 L 859.779 366.602 Q 859.867 368.184 859.984 370.205 L 859.984 370.205 L 859.984 370.205 Q 860.102 372.227 860.219 374.453 L 860.219 374.453 L 860.219 374.453 Q 860.336 376.68 860.424 378.672 L 860.424 378.672 L 860.424 378.672 Q 860.512 380.664 860.6 382.246 L 860.6 382.246 L 860.6 382.246 Q 860.688 383.828 860.688 384.59 L 860.688 384.59 L 860.688 384.59 Q 861.332 385.41 861.654 386.494 L 861.654 386.494 L 861.654 386.494 Q 861.977 387.578 861.684 388.633 L 861.684 388.633 L 861.684 388.633 Q 860.512 389.043 859.691 388.574 L 859.691 388.574 L 859.691 388.574 Q 858.871 388.105 858.285 387.256 L 858.285 387.256 L 858.285 387.256 Q 857.699 386.406 857.289 385.352 L 857.289 385.352 L 857.289 385.352 Q 856.879 384.297 856.586 383.535 L 856.586 383.535 L 856.586 383.535 Q 856.703 381.309 856.762 378.73 L 856.762 378.73 L 856.762 378.73 Q 856.82 376.152 856.732 373.486 L 856.732 373.486 L 856.732 373.486 Q 856.645 370.82 856.381 368.184 L 856.381 368.184 L 856.381 368.184 Q 856.117 365.547 855.59 363.203 L 855.59 363.203 L 855.59 363.203 Q 854.535 362.676 853.627 363.613 L 853.627 363.613 L 853.627 363.613 Q 852.719 364.551 851.928 366.455 L 851.928 366.455 L 851.928 366.455 Q 851.137 368.359 850.434 370.938 L 850.434 370.938 L 850.434 370.938 Q 849.73 373.516 849.086 376.357 L 849.086 376.357 L 849.086 376.357 Q 848.441 379.199 847.826 382.012 L 847.826 382.012 L 847.826 382.012 Q 847.211 384.824 846.654 387.109 L 846.654 387.109 L 846.654 387.109 Q 846.098 389.395 845.541 390.918 L 845.541 390.918 L 845.541 390.918 Q 844.984 392.441 844.398 392.734 L 844.398 392.734 Z  M 600.707 391.738 L 600.707 391.738 L 600.707 391.738 Q 600.59 391.387 600.59 390.625 L 600.59 390.625 L 600.59 390.625 Q 600.59 389.863 600.707 389.688 L 600.707 389.688 L 600.707 389.688 Q 600.766 389.629 601.029 389.482 L 601.029 389.482 L 601.029 389.482 Q 601.293 389.336 601.615 389.16 L 601.615 389.16 L 601.615 389.16 Q 601.938 388.984 602.26 388.838 L 602.26 388.838 L 602.26 388.838 Q 602.582 388.691 602.758 388.633 L 602.758 388.633 L 602.758 388.633 Q 605.336 387.93 607.885 387.109 L 607.885 387.109 L 607.885 387.109 Q 610.434 386.289 612.895 385.234 L 612.895 385.234 L 612.895 385.234 Q 615.355 384.18 617.641 382.803 L 617.641 382.803 L 617.641 382.803 Q 619.926 381.426 622.035 379.551 L 622.035 379.551 L 622.035 379.551 Q 627.074 374.98 629.271 371.67 L 629.271 371.67 L 629.271 371.67 Q 631.469 368.359 631.586 366.074 L 631.586 366.074 L 631.586 366.074 Q 631.703 363.789 630.15 362.412 L 630.15 362.412 L 630.15 362.412 Q 628.598 361.035 626.225 360.361 L 626.225 360.361 L 626.225 360.361 Q 623.852 359.688 621.01 359.629 L 621.01 359.629 L 621.01 359.629 Q 618.168 359.57 615.736 359.922 L 615.736 359.922 L 615.736 359.922 Q 613.305 360.273 611.635 360.918 L 611.635 360.918 L 611.635 360.918 Q 609.965 361.563 609.906 362.266 L 609.906 362.266 L 607.855 382.598 L 607.855 382.598 Q 607.797 383.125 607.299 383.389 L 607.299 383.389 L 607.299 383.389 Q 606.801 383.652 606.244 383.652 L 606.244 383.652 L 606.244 383.652 Q 605.688 383.652 605.248 383.389 L 605.248 383.389 L 605.248 383.389 Q 604.809 383.125 604.809 382.598 L 604.809 382.598 L 604.809 366.25 L 600.707 366.25 L 600.707 366.25 Q 600.648 366.133 600.648 365.752 L 600.648 365.752 L 600.648 365.752 Q 600.648 365.371 600.707 365.254 L 600.707 365.254 L 600.707 365.254 Q 600.941 364.961 601.498 364.229 L 601.498 364.229 L 601.498 364.229 Q 602.055 363.496 602.699 362.676 L 602.699 362.676 L 602.699 362.676 Q 603.344 361.855 603.93 361.152 L 603.93 361.152 L 603.93 361.152 Q 604.516 360.449 604.809 360.215 L 604.809 360.215 L 604.809 360.215 Q 604.867 359.453 605.014 357.578 L 605.014 357.578 L 605.014 357.578 Q 605.16 355.703 605.307 353.594 L 605.307 353.594 L 605.307 353.594 Q 605.453 351.484 605.6 349.58 L 605.6 349.58 L 605.6 349.58 Q 605.746 347.676 605.805 346.973 L 605.805 346.973 L 605.805 346.973 Q 605.922 345.391 605.482 344.717 L 605.482 344.717 L 605.482 344.717 Q 605.043 344.043 604.281 344.014 L 604.281 344.014 L 604.281 344.014 Q 603.52 343.984 602.582 344.424 L 602.582 344.424 L 602.582 344.424 Q 601.645 344.863 600.707 345.508 L 600.707 345.508 L 600.707 345.508 Q 599.77 346.152 598.949 346.855 L 598.949 346.855 L 598.949 346.855 Q 598.129 347.559 597.66 347.969 L 597.66 347.969 L 597.66 347.969 Q 597.191 348.438 596.02 349.58 L 596.02 349.58 L 596.02 349.58 Q 594.848 350.723 593.559 352.041 L 593.559 352.041 L 593.559 352.041 Q 592.27 353.359 591.098 354.502 L 591.098 354.502 L 591.098 354.502 Q 589.926 355.645 589.516 356.113 L 589.516 356.113 L 586.469 356.113 L 586.469 356.113 Q 585.941 354.473 587.143 352.627 L 587.143 352.627 L 587.143 352.627 Q 588.344 350.781 590.746 348.848 L 590.746 348.848 L 590.746 348.848 Q 593.148 346.914 596.459 344.98 L 596.459 344.98 L 596.459 344.98 Q 599.77 343.047 603.461 341.318 L 603.461 341.318 L 603.461 341.318 Q 607.152 339.59 610.873 338.125 L 610.873 338.125 L 610.873 338.125 Q 614.594 336.66 617.846 335.635 L 617.846 335.635 L 617.846 335.635 Q 621.098 334.609 623.559 334.082 L 623.559 334.082 L 623.559 334.082 Q 626.02 333.555 627.133 333.73 L 627.133 333.73 L 627.133 333.73 Q 628.188 333.965 628.48 334.902 L 628.48 334.902 L 628.48 334.902 Q 628.773 335.84 628.598 336.982 L 628.598 336.982 L 628.598 336.982 Q 628.422 338.125 627.982 339.238 L 627.982 339.238 L 627.982 339.238 Q 627.543 340.352 627.133 340.879 L 627.133 340.879 L 627.133 340.879 Q 625.316 343.457 623.793 345.537 L 623.793 345.537 L 623.793 345.537 Q 622.27 347.617 620.658 349.463 L 620.658 349.463 L 620.658 349.463 Q 619.047 351.309 617.201 353.154 L 617.201 353.154 L 617.201 353.154 Q 615.355 355 612.953 357.168 L 612.953 357.168 L 612.953 357.168 Q 614.945 357.52 616.791 357.285 L 616.791 357.285 L 616.791 357.285 Q 618.637 357.051 620.424 356.787 L 620.424 356.787 L 620.424 356.787 Q 622.211 356.523 624.115 356.494 L 624.115 356.494 L 624.115 356.494 Q 626.02 356.465 628.188 357.168 L 628.188 357.168 L 628.188 357.168 Q 629.477 357.578 630.473 358.047 L 630.473 358.047 L 630.473 358.047 Q 631.469 358.516 632.201 359.16 L 632.201 359.16 L 632.201 359.16 Q 632.934 359.805 633.432 360.771 L 633.432 360.771 L 633.432 360.771 Q 633.93 361.738 634.281 363.203 L 634.281 363.203 L 634.281 363.203 Q 635.043 366.719 633.695 370.059 L 633.695 370.059 L 633.695 370.059 Q 632.348 373.398 629.623 376.387 L 629.623 376.387 L 629.623 376.387 Q 626.898 379.375 623.266 381.982 L 623.266 381.982 L 623.266 381.982 Q 619.633 384.59 615.883 386.699 L 615.883 386.699 L 615.883 386.699 Q 612.133 388.809 608.646 390.332 L 608.646 390.332 L 608.646 390.332 Q 605.16 391.855 602.758 392.734 L 602.758 392.734 L 602.758 392.734 Q 602.113 393.027 601.527 392.646 L 601.527 392.646 L 601.527 392.646 Q 600.941 392.266 600.707 391.738 Z  M 609.906 342.871 L 609.906 356.113 L 609.906 356.113 Q 610.316 355.762 611.107 354.971 L 611.107 354.971 L 611.107 354.971 Q 611.898 354.18 612.924 353.184 L 612.924 353.184 L 612.924 353.184 Q 613.949 352.188 615.063 351.104 L 615.063 351.104 L 615.063 351.104 Q 616.176 350.02 617.143 348.994 L 617.143 348.994 L 617.143 348.994 Q 618.109 347.969 618.9 347.148 L 618.9 347.148 L 618.9 347.148 Q 619.691 346.328 620.043 345.918 L 620.043 345.918 L 620.043 345.918 Q 620.629 345.332 621.479 344.189 L 621.479 344.189 L 621.479 344.189 Q 622.328 343.047 623.148 341.904 L 623.148 341.904 L 623.148 341.904 Q 623.969 340.762 624.555 339.883 L 624.555 339.883 L 624.555 339.883 Q 625.141 339.004 625.141 338.828 L 625.141 338.828 L 625.141 335.781 L 625.141 335.781 Q 623.383 335.488 621.01 336.074 L 621.01 336.074 L 621.01 336.074 Q 618.637 336.66 616.293 337.568 L 616.293 337.568 L 616.293 337.568 Q 613.949 338.477 611.928 339.443 L 611.928 339.443 L 611.928 339.443 Q 609.906 340.41 608.852 340.879 L 608.852 340.879 L 609.906 342.871 Z  M 648.52 391.738 L 648.52 391.738 L 648.52 391.738 Q 646.059 389.805 644.623 387.197 L 644.623 387.197 L 644.623 387.197 Q 643.188 384.59 642.426 381.602 L 642.426 381.602 L 642.426 381.602 Q 642.074 381.895 641.371 382.246 L 641.371 382.246 L 641.371 382.246 Q 640.668 382.598 639.936 382.832 L 639.936 382.832 L 639.936 382.832 Q 639.203 383.066 638.5 383.154 L 638.5 383.154 L 638.5 383.154 Q 637.797 383.242 637.475 383.008 L 637.475 383.008 L 637.475 383.008 Q 637.152 382.773 637.299 382.217 L 637.299 382.217 L 637.299 382.217 Q 637.445 381.66 638.383 380.547 L 638.383 380.547 L 638.383 380.547 Q 638.5 380.371 639.115 379.785 L 639.115 379.785 L 639.115 379.785 Q 639.73 379.199 640.434 378.525 L 640.434 378.525 L 640.434 378.525 Q 641.137 377.852 641.723 377.236 L 641.723 377.236 L 641.723 377.236 Q 642.309 376.621 642.426 376.445 L 642.426 376.445 L 642.426 376.445 Q 643.07 374.98 643.217 373.223 L 643.217 373.223 L 643.217 373.223 Q 643.363 371.465 643.393 369.561 L 643.393 369.561 L 643.393 369.561 Q 643.422 367.656 643.598 365.781 L 643.598 365.781 L 643.598 365.781 Q 643.773 363.906 644.477 362.266 L 644.477 362.266 L 644.477 362.266 Q 644.887 361.328 646.029 359.951 L 646.029 359.951 L 646.029 359.951 Q 647.172 358.574 648.607 357.285 L 648.607 357.285 L 648.607 357.285 Q 650.043 355.996 651.537 354.971 L 651.537 354.971 L 651.537 354.971 Q 653.031 353.945 654.115 353.711 L 654.115 353.711 L 654.115 353.711 Q 655.199 353.477 655.697 354.238 L 655.697 354.238 L 655.697 354.238 Q 656.195 355 655.668 357.168 L 655.668 357.168 L 655.668 357.168 Q 655.023 359.746 653.705 362.178 L 653.705 362.178 L 653.705 362.178 Q 652.387 364.609 650.98 366.982 L 650.98 366.982 L 650.98 366.982 Q 649.574 369.355 648.314 371.699 L 648.314 371.699 L 648.314 371.699 Q 647.055 374.043 646.527 376.445 L 646.527 376.445 L 646.527 376.445 Q 646.234 377.734 646.234 379.58 L 646.234 379.58 L 646.234 379.58 Q 646.234 381.426 646.645 383.242 L 646.645 383.242 L 646.645 383.242 Q 647.055 385.059 647.992 386.553 L 647.992 386.553 L 647.992 386.553 Q 648.93 388.047 650.57 388.633 L 650.57 388.633 L 650.57 388.633 Q 652.445 389.336 654.32 388.984 L 654.32 388.984 L 654.32 388.984 Q 656.195 388.633 657.982 387.637 L 657.982 387.637 L 657.982 387.637 Q 659.77 386.641 661.41 385.146 L 661.41 385.146 L 661.41 385.146 Q 663.051 383.652 664.457 382.07 L 664.457 382.07 L 664.457 382.07 Q 665.863 380.488 666.977 378.994 L 666.977 378.994 L 666.977 378.994 Q 668.09 377.5 668.852 376.445 L 668.852 376.445 L 669.848 377.5 L 669.848 377.5 Q 670.258 377.852 669.35 379.492 L 669.35 379.492 L 669.35 379.492 Q 668.441 381.133 666.713 383.213 L 666.713 383.213 L 666.713 383.213 Q 664.984 385.293 662.641 387.461 L 662.641 387.461 L 662.641 387.461 Q 660.297 389.629 657.807 391.094 L 657.807 391.094 L 657.807 391.094 Q 655.316 392.559 652.885 392.91 L 652.885 392.91 L 652.885 392.91 Q 650.453 393.262 648.52 391.738 Z  M 646.527 366.25 L 646.527 366.25 L 646.527 366.25 Q 646.469 366.543 646.439 367.275 L 646.439 367.275 L 646.439 367.275 Q 646.41 368.008 646.41 368.828 L 646.41 368.828 L 646.41 368.828 Q 646.41 369.648 646.439 370.352 L 646.439 370.352 L 646.439 370.352 Q 646.469 371.055 646.527 371.348 L 646.527 371.348 L 646.527 371.348 Q 648.402 368.125 650.043 364.492 L 650.043 364.492 L 650.043 364.492 Q 651.684 360.859 652.621 357.168 L 652.621 357.168 L 652.621 357.168 Q 651.273 357.637 650.189 358.604 L 650.189 358.604 L 650.189 358.604 Q 649.105 359.57 648.344 360.83 L 648.344 360.83 L 648.344 360.83 Q 647.582 362.09 647.143 363.496 L 647.143 363.496 L 647.143 363.496 Q 646.703 364.902 646.527 366.25 Z  M 671.137 391.738 L 671.137 391.738 L 671.137 391.738 Q 671.195 390.977 671.195 389.102 L 671.195 389.102 L 671.195 381.133 L 671.195 381.133 Q 671.195 379.258 671.137 378.496 L 671.137 378.496 L 671.137 378.496 Q 671.078 378.145 670.932 376.973 L 670.932 376.973 L 670.932 376.973 Q 670.785 375.801 670.58 374.219 L 670.58 374.219 L 670.58 374.219 Q 670.375 372.637 670.141 370.879 L 670.141 370.879 L 670.141 370.879 Q 669.906 369.121 669.672 367.539 L 669.672 367.539 L 669.672 367.539 Q 669.438 365.957 669.291 364.785 L 669.291 364.785 L 669.291 364.785 Q 669.145 363.613 669.086 363.203 L 669.086 363.203 L 669.086 363.203 Q 668.969 362.383 668.998 361.504 L 668.998 361.504 L 668.998 361.504 Q 669.027 360.625 669.32 359.98 L 669.32 359.98 L 669.32 359.98 Q 669.613 359.336 670.258 359.072 L 670.258 359.072 L 670.258 359.072 Q 670.902 358.809 672.133 359.219 L 672.133 359.219 L 672.133 359.219 Q 672.191 360.449 672.338 362.119 L 672.338 362.119 L 672.338 362.119 Q 672.484 363.789 672.719 365.605 L 672.719 365.605 L 672.719 365.605 Q 672.953 367.422 673.305 369.18 L 673.305 369.18 L 673.305 369.18 Q 673.656 370.938 674.184 372.402 L 674.184 372.402 L 674.184 372.402 Q 674.945 370.234 675.678 368.564 L 675.678 368.564 L 675.678 368.564 Q 676.41 366.895 677.348 365.488 L 677.348 365.488 L 677.348 365.488 Q 678.285 364.082 679.457 362.822 L 679.457 362.822 L 679.457 362.822 Q 680.629 361.563 682.27 360.215 L 682.27 360.215 L 682.27 360.215 Q 684.32 358.516 685.697 358.838 L 685.697 358.838 L 685.697 358.838 Q 687.074 359.16 687.982 360.83 L 687.982 360.83 L 687.982 360.83 Q 688.891 362.5 689.477 365.137 L 689.477 365.137 L 689.477 365.137 Q 690.063 367.773 690.531 370.732 L 690.531 370.732 L 690.531 370.732 Q 691 373.691 691.498 376.533 L 691.498 376.533 L 691.498 376.533 Q 691.996 379.375 692.758 381.455 L 692.758 381.455 L 692.758 381.455 Q 693.52 383.535 694.662 384.502 L 694.662 384.502 L 694.662 384.502 Q 695.805 385.469 697.563 384.59 L 697.563 384.59 L 697.563 384.59 Q 698.09 386.172 697.709 386.904 L 697.709 386.904 L 697.709 386.904 Q 697.328 387.637 696.42 387.725 L 696.42 387.725 L 696.42 387.725 Q 695.512 387.813 694.281 387.256 L 694.281 387.256 L 694.281 387.256 Q 693.051 386.699 691.85 385.732 L 691.85 385.732 L 691.85 385.732 Q 690.648 384.766 689.711 383.418 L 689.711 383.418 L 689.711 383.418 Q 688.773 382.07 688.422 380.547 L 688.422 380.547 L 688.422 380.547 Q 688.188 379.492 688.012 377.09 L 688.012 377.09 L 688.012 377.09 Q 687.836 374.688 687.484 371.934 L 687.484 371.934 L 687.484 371.934 Q 687.133 369.18 686.4 366.514 L 686.4 366.514 L 686.4 366.514 Q 685.668 363.848 684.32 362.266 L 684.32 362.266 L 680.219 366.25 L 680.219 366.25 Q 680.043 366.484 679.369 368.359 L 679.369 368.359 L 679.369 368.359 Q 678.695 370.234 677.875 372.666 L 677.875 372.666 L 677.875 372.666 Q 677.055 375.098 676.293 377.588 L 676.293 377.588 L 676.293 377.588 Q 675.531 380.078 675.18 381.602 L 675.18 381.602 L 675.18 381.602 Q 675.063 382.129 674.887 383.564 L 674.887 383.564 L 674.887 383.564 Q 674.711 385 674.535 386.641 L 674.535 386.641 L 674.535 386.641 Q 674.359 388.281 674.271 389.717 L 674.271 389.717 L 674.271 389.717 Q 674.184 391.152 674.184 391.738 L 674.184 391.738 L 674.184 391.738 Q 673.656 392.793 672.66 392.793 L 672.66 392.793 L 672.66 392.793 Q 671.664 392.793 671.137 391.738 Z " fill-rule="evenodd" fill="rgb(255,255,255)"/>
</svg>
